Gait_lateral_06_analogdata.mot
version=1
nRows=21
nColumns=19
inDegrees=yes
endheader
time	1_ground_force_vx	1_ground_force_vy	1_ground_force_vz	1_ground_force_px	1_ground_force_py	1_ground_force_pz	1_ground_torque_x	1_ground_torque_y	1_ground_torque_z	2_ground_force_vx	2_ground_force_vy	2_ground_force_vz	2_ground_force_px	2_ground_force_py	2_ground_force_pz	2_ground_torque_x	2_ground_torque_y	2_ground_torque_z
0.720000	-43.355758	695.828674	67.912248	-0.121914	0.000000	-0.312349	0.217948	-3.497902	-0.341392	0.000000	0.000000	-0.000000	-0.200000	0.000000	0.302000	0.000000	0.000000	-0.000000
0.721000	-43.890273	689.880005	68.443063	-0.120525	0.000000	-0.312769	0.230894	-3.629253	-0.360059	0.000000	0.000000	-0.000000	-0.200000	0.000000	0.302000	0.000000	0.000000	-0.000000
0.722000	-44.246616	691.279663	69.947038	-0.121080	0.000000	-0.313128	0.240394	-3.755752	-0.380025	0.000000	0.000000	-0.000000	-0.200000	0.000000	0.302000	0.000000	0.000000	-0.000000
0.723000	-44.959300	687.430542	69.947038	-0.120247	0.000000	-0.313552	0.229023	-3.501777	-0.356311	0.000000	0.000000	-0.000000	-0.200000	0.000000	0.302000	0.000000	0.000000	-0.000000
0.724000	-45.137473	686.730713	71.362542	-0.120938	0.000000	-0.312887	0.236450	-3.597401	-0.373829	0.000000	0.000000	-0.000000	-0.200000	0.000000	0.302000	0.000000	0.000000	-0.000000
0.725000	-44.157531	680.432068	72.158769	-0.119513	0.000000	-0.312481	0.226776	-3.494431	-0.370579	0.000000	0.000000	-0.000000	-0.200000	0.000000	0.302000	0.000000	0.000000	-0.000000
0.726000	-43.801186	679.732239	74.547441	-0.119340	0.000000	-0.313057	0.210889	-3.272702	-0.358923	0.000000	0.000000	-0.000000	-0.200000	0.000000	0.302000	0.000000	0.000000	-0.000000
0.727000	-42.197643	683.931335	75.520601	-0.120089	0.000000	-0.312381	0.205583	-3.332057	-0.367930	0.000000	0.000000	-0.000000	-0.200000	0.000000	0.302000	0.000000	0.000000	-0.000000
0.728000	-41.217697	683.931335	75.343660	-0.119962	0.000000	-0.311801	0.188784	-3.132522	-0.345087	0.000000	0.000000	-0.000000	-0.200000	0.000000	0.302000	0.000000	0.000000	-0.000000
0.729000	-43.712101	683.231445	75.962945	-0.120060	0.000000	-0.311914	0.211868	-3.311554	-0.368185	0.000000	0.000000	-0.000000	-0.200000	0.000000	0.302000	0.000000	0.000000	-0.000000
0.730000	-44.781132	683.231445	75.962945	-0.120087	0.000000	-0.311891	0.227744	-3.474724	-0.386326	0.000000	0.000000	-0.000000	-0.200000	0.000000	0.302000	0.000000	0.000000	-0.000000
0.731000	-44.692048	682.531616	77.732331	-0.120016	0.000000	-0.311617	0.239047	-3.650701	-0.415772	0.000000	0.000000	-0.000000	-0.200000	0.000000	0.302000	0.000000	0.000000	-0.000000
0.732000	-43.890275	682.181702	78.086205	-0.119001	0.000000	-0.311693	0.237191	-3.686633	-0.421992	0.000000	0.000000	-0.000000	-0.200000	0.000000	0.302000	0.000000	0.000000	-0.000000
0.733000	-43.979359	682.881531	78.705491	-0.119262	0.000000	-0.312865	0.208833	-3.242620	-0.373728	0.000000	0.000000	-0.000000	-0.200000	0.000000	0.302000	0.000000	0.000000	-0.000000
0.734000	-44.068444	673.783569	79.413247	-0.119039	0.000000	-0.312087	0.207465	-3.172028	-0.373860	0.000000	0.000000	-0.000000	-0.200000	0.000000	0.302000	0.000000	0.000000	-0.000000
0.735000	-44.068444	682.181702	81.801911	-0.120475	0.000000	-0.311280	0.197705	-3.060477	-0.366989	0.000000	0.000000	-0.000000	-0.200000	0.000000	0.302000	0.000000	0.000000	-0.000000
0.736000	-43.533933	680.082153	81.005693	-0.120278	0.000000	-0.311217	0.218705	-3.416587	-0.406955	0.000000	0.000000	-0.000000	-0.200000	0.000000	0.302000	0.000000	0.000000	-0.000000
0.737000	-44.959302	680.782043	82.067323	-0.119964	0.000000	-0.310745	0.210595	-3.188872	-0.384414	0.000000	0.000000	-0.000000	-0.200000	0.000000	0.302000	0.000000	0.000000	-0.000000
0.738000	-44.157533	681.131958	82.332726	-0.120214	0.000000	-0.311889	0.208196	-3.211427	-0.388186	0.000000	0.000000	-0.000000	-0.200000	0.000000	0.302000	0.000000	0.000000	-0.000000
0.739000	-44.781133	673.783569	83.571297	-0.119472	0.000000	-0.311484	0.200799	-3.021250	-0.374734	0.000000	0.000000	-0.000000	-0.200000	0.000000	0.302000	0.000000	0.000000	-0.000000
0.740000	-44.335702	678.332581	84.986810	-0.119781	0.000000	-0.311001	0.200987	-3.075089	-0.385271	0.000000	0.000000	-0.000000	-0.200000	0.000000	0.302000	0.000000	0.000000	-0.000000
